<?xml version="1.0" encoding="UTF-8"?>
<!DOCTYPE svg PUBLIC "-//W3C//DTD SVG 1.1//EN" "http://www.w3.org/Graphics/SVG/1.1/DTD/svg11.dtd">
<svg xmlns="http://www.w3.org/2000/svg" version="1.1" width="508px" height="491px" style="shape-rendering:geometricPrecision; text-rendering:geometricPrecision; image-rendering:optimizeQuality; fill-rule:evenodd; clip-rule:evenodd" xmlns:xlink="http://www.w3.org/1999/xlink">
<g><path style="opacity:0.997" fill="#221e1f" d="M 95.5,26.5 C 103.977,24.1562 107.477,27.1562 106,35.5C 94.1343,56.0201 82.3009,76.5201 70.5,97C 73.557,97.2565 76.557,97.7565 79.5,98.5C 80.4682,97.5109 81.6349,96.8443 83,96.5C 91.1446,96.2214 99.3112,96.5548 107.5,97.5C 108.578,80.4138 108.578,63.2471 107.5,46C 107.901,40.4911 108.401,34.9911 109,29.5C 116.923,24.1665 121.09,25.9999 121.5,35C 123.043,48.7777 124.043,62.6111 124.5,76.5C 123.55,83.6816 123.217,91.015 123.5,98.5C 131.283,99.3909 138.95,100.891 146.5,103C 148.968,104.216 150.968,105.883 152.5,108C 152.355,108.772 152.022,109.439 151.5,110C 147.857,110.972 144.19,111.806 140.5,112.5C 134.848,111.267 129.181,111.267 123.5,112.5C 123.351,117.409 122.351,122.076 120.5,126.5C 122.301,129.91 122.468,133.576 121,137.5C 119.139,139.888 117.806,142.554 117,145.5C 111.783,150.886 108.95,149.553 108.5,141.5C 109.242,138.601 109.075,135.601 108,132.5C 107.5,125.842 107.334,119.175 107.5,112.5C 88.6134,112.135 69.7801,112.135 51,112.5C 49.5,112.333 48,112.167 46.5,112C 45.9415,111.275 45.6082,110.442 45.5,109.5C 46.7229,106.053 48.2229,102.72 50,99.5C 54.7206,93.7794 59.054,87.7794 63,81.5C 68.6315,70.227 74.6315,59.227 81,48.5C 86.0862,41.2637 90.9196,33.9303 95.5,26.5 Z"/></g>
<g><path style="opacity:0.997" fill="#221e1f" d="M 247.5,26.5 C 250.898,26.1796 254.232,26.513 257.5,27.5C 258.562,30.1029 258.728,32.7695 258,35.5C 248.041,53.3637 237.708,71.0304 227,88.5C 226.22,91.5117 225.053,94.3451 223.5,97C 226.224,97.2695 228.891,97.7695 231.5,98.5C 232.468,97.5109 233.635,96.8443 235,96.5C 243.478,96.2128 251.978,96.5461 260.5,97.5C 261.032,76.0822 261.032,54.5822 260.5,33C 261.473,28.8687 264.14,26.702 268.5,26.5C 270.055,26.722 271.389,27.3887 272.5,28.5C 274.215,34.3209 275.215,40.3209 275.5,46.5C 275.449,48.0998 275.116,49.5998 274.5,51C 275.241,59.4409 275.908,67.9409 276.5,76.5C 275.726,81.5417 275.726,86.7084 276.5,92C 275.595,94.8467 275.095,97.68 275,100.5C 275.804,99.1955 276.971,98.5288 278.5,98.5C 285.485,99.9879 292.485,101.488 299.5,103C 301.731,104.61 303.731,106.443 305.5,108.5C 305.291,109.086 304.957,109.586 304.5,110C 300.496,110.881 296.496,111.714 292.5,112.5C 286.856,111.33 281.189,111.33 275.5,112.5C 275.351,117.409 274.351,122.076 272.5,126.5C 272.887,128.274 273.553,129.941 274.5,131.5C 273.007,135.824 271.507,140.157 270,144.5C 268.54,146.466 266.873,148.132 265,149.5C 264.228,149.355 263.561,149.022 263,148.5C 262.167,146 261.333,143.5 260.5,141C 259.233,131.599 259.233,122.099 260.5,112.5C 241.44,112.1 222.44,112.1 203.5,112.5C 200.729,112.918 198.729,111.918 197.5,109.5C 213.966,81.542 230.633,53.8754 247.5,26.5 Z"/></g>
<g><path style="opacity:0.511" fill="#4d4949" d="M 330.5,39.5 C 329.292,40.2341 327.959,40.5674 326.5,40.5C 326.5,39.1667 326.5,37.8333 326.5,36.5C 326.334,31.1563 326.501,25.8229 327,20.5C 328.183,19.269 329.349,19.269 330.5,20.5C 331.444,26.9747 331.444,33.308 330.5,39.5 Z"/></g>
<g><path style="opacity:0.992" fill="#221e1f" d="M 403.5,32.5 C 411.005,31.9884 418.339,32.8217 425.5,35C 432.219,38.9073 439.219,42.2406 446.5,45C 456.908,54.2224 462.242,65.8891 462.5,80C 462.23,81.5143 461.897,83.0143 461.5,84.5C 464.015,87.519 465.682,91.019 466.5,95C 462.034,123.632 445.367,140.132 416.5,144.5C 402.761,144.752 390.094,141.252 378.5,134C 373.023,128.854 367.856,123.354 363,117.5C 361.269,111.711 359.269,106.044 357,100.5C 356.815,93.2534 356.315,86.0867 355.5,79C 358.574,73.4528 361.074,67.6195 363,61.5C 365.442,58.271 368.108,55.271 371,52.5C 371.333,50.8333 371.667,49.1667 372,47.5C 378.75,43.2078 385.583,39.0411 392.5,35C 396.312,34.2045 399.979,33.3712 403.5,32.5 Z M 405.5,47.5 C 411.577,47.1959 417.577,47.6959 423.5,49C 434.823,52.2973 443.657,58.7973 450,68.5C 452.727,75.2807 454.894,82.2807 456.5,89.5C 455.855,90.646 455.022,91.646 454,92.5C 453.63,99.6143 451.297,105.948 447,111.5C 430.946,130.161 411.78,133.994 389.5,123C 368.452,105.64 365.285,85.4736 380,62.5C 386.47,53.8261 394.97,48.8261 405.5,47.5 Z"/></g>
<g><path style="opacity:0.834" fill="#1d1a1b" d="M 326.5,36.5 C 326.5,37.8333 326.5,39.1667 326.5,40.5C 327.959,40.5674 329.292,40.2341 330.5,39.5C 330.697,80.0693 331.03,120.403 331.5,160.5C 376.138,161.186 420.638,161.186 465,160.5C 466.833,160.667 468.667,160.833 470.5,161C 473.915,162.143 474.249,163.81 471.5,166C 424.557,166.801 377.89,167.301 331.5,167.5C 331.5,187.167 331.5,206.833 331.5,226.5C 330.414,226.38 329.747,225.713 329.5,224.5C 330.331,222.527 330.498,220.527 330,218.5C 329.667,219.5 329.333,220.5 329,221.5C 327.826,214.805 327.659,208.138 328.5,201.5C 328.167,201.167 327.833,200.833 327.5,200.5C 326.83,202.291 326.163,203.958 325.5,205.5C 325.389,192.673 325.389,180.006 325.5,167.5C 277.67,166.761 229.67,166.594 181.5,167C 180.782,169.461 180.115,171.961 179.5,174.5C 180.339,193.068 180.673,211.735 180.5,230.5C 179.768,231.808 178.934,233.142 178,234.5C 177.667,230.167 177.333,225.833 177,221.5C 176.333,220.167 175.667,218.833 175,217.5C 174.817,220.365 174.317,223.031 173.5,225.5C 173.328,207.46 173.328,189.46 173.5,171.5C 173.368,169.399 172.368,167.899 170.5,167C 139.474,167.448 108.141,167.615 76.5,167.5C 72.368,166.725 68.2013,166.059 64,165.5C 54.9855,166.51 46.1522,166.176 37.5,164.5C 37.5,163.5 37.5,162.5 37.5,161.5C 82.6148,161.759 127.781,161.759 173,161.5C 173.778,133.655 174.278,105.822 174.5,78C 173.642,76.43 172.975,74.7633 172.5,73C 173.313,55.8648 173.813,38.6982 174,21.5C 177.097,18.6519 179.263,19.3186 180.5,23.5C 179.858,68.97 179.858,114.637 180.5,160.5C 228.624,160.741 276.624,160.741 324.5,160.5C 325.311,118.907 325.977,77.5739 326.5,36.5 Z"/></g>
<g><path style="opacity:0.325" fill="#992226" d="M 98.5,183.5 C 104.538,180.855 107.871,182.855 108.5,189.5C 107.221,187.877 105.887,186.21 104.5,184.5C 102.604,183.534 100.604,183.201 98.5,183.5 Z"/></g>
<g><path style="opacity:0.122" fill="#a72327" d="M 123.5,186.5 C 122.833,186.5 122.167,186.5 121.5,186.5C 115.419,184.27 111.752,186.27 110.5,192.5C 109.805,186.525 112.471,183.191 118.5,182.5C 120.786,183.133 122.452,184.466 123.5,186.5 Z"/></g>
<g><path style="opacity:0.992" fill="#e11f26" d="M 261.5,184.5 C 259.197,185.231 256.864,185.564 254.5,185.5C 262.89,185.903 270.224,188.736 276.5,194C 281.432,195.404 286.098,197.237 290.5,199.5C 292.138,201.301 293.971,202.967 296,204.5C 296.911,209.162 298.578,213.495 301,217.5C 302.228,223.005 302.395,228.505 301.5,234C 304.328,236.936 306.328,240.436 307.5,244.5C 303.292,268.194 289.958,284.028 267.5,292C 265.527,292.495 263.527,292.662 261.5,292.5C 254.492,292.666 247.492,292.5 240.5,292C 231.315,286.907 221.982,282.074 212.5,277.5C 204.334,270.848 199.501,262.181 198,251.5C 197.158,243.554 196.658,235.721 196.5,228C 198.415,223.405 200.415,218.905 202.5,214.5C 205.864,211.516 209.03,208.183 212,204.5C 211.639,199.706 213.806,197.039 218.5,196.5C 219.32,194.681 220.32,193.014 221.5,191.5C 233.675,182.491 247.009,180.158 261.5,184.5 Z M 252.5,196.5 C 267.773,198.716 280.273,205.716 290,217.5C 292.545,224.567 294.712,231.734 296.5,239C 294.235,245.537 291.735,252.037 289,258.5C 284.14,263.36 279.306,268.194 274.5,273C 250.956,284.372 231.456,279.539 216,258.5C 206.863,237.743 210.696,219.743 227.5,204.5C 235.281,199.82 243.614,197.154 252.5,196.5 Z"/></g>
<g><path style="opacity:0.995" fill="#e01f25" d="M 405.5,183.5 C 407.288,183.215 408.955,183.548 410.5,184.5C 411.588,185.934 412.922,186.934 414.5,187.5C 415.378,190.773 414.212,193.44 411,195.5C 408.169,203.172 404.335,210.172 399.5,216.5C 398.448,216.351 397.448,216.517 396.5,217C 397.337,218.011 397.67,219.178 397.5,220.5C 396.178,220.33 395.011,220.663 394,221.5C 392.617,224.368 391.784,227.368 391.5,230.5C 387.256,237.987 383.256,245.654 379.5,253.5C 381.314,253.445 383.314,253.779 385.5,254.5C 387.682,254.303 389.682,253.636 391.5,252.5C 395.521,253.764 399.521,253.764 403.5,252.5C 406.863,253.168 410.197,253.835 413.5,254.5C 414.568,255.434 415.901,255.768 417.5,255.5C 417.5,252.5 417.5,249.5 417.5,246.5C 416.671,228.818 416.671,211.151 417.5,193.5C 418.899,191.127 420.232,188.627 421.5,186C 424.41,185.363 427.077,185.863 429.5,187.5C 430.911,197.788 431.911,208.121 432.5,218.5C 432.556,230.533 432.223,242.533 431.5,254.5C 430.224,255.386 430.224,256.386 431.5,257.5C 435.094,256.574 438.76,256.241 442.5,256.5C 447.168,257.601 451.835,258.768 456.5,260C 458.585,261.041 460.252,262.541 461.5,264.5C 459.349,266.718 456.682,268.052 453.5,268.5C 448.116,267.601 442.616,267.268 437,267.5C 435.441,268.029 433.941,268.696 432.5,269.5C 431.852,274.218 430.519,278.718 428.5,283C 428.439,284.711 429.106,286.044 430.5,287C 428.88,291.754 427.38,296.587 426,301.5C 424.446,304.102 422.28,305.269 419.5,305C 418.809,303.933 418.309,302.766 418,301.5C 417.876,295.2 417.043,289.033 415.5,283C 415.605,281.408 415.939,279.908 416.5,278.5C 417.808,274.981 417.808,271.315 416.5,267.5C 415.893,267.624 415.56,267.957 415.5,268.5C 395.229,268.603 374.896,268.603 354.5,268.5C 354.778,264.268 355.944,260.268 358,256.5C 363.159,250.183 367.826,243.516 372,236.5C 378.342,224.474 385.175,212.807 392.5,201.5C 395.058,199.45 397.558,197.117 400,194.5C 400.494,192.866 400.66,191.199 400.5,189.5C 403.086,188.362 404.753,186.362 405.5,183.5 Z"/></g>
<g><path style="opacity:0.522" fill="#a72729" d="M 405.5,183.5 C 407.628,182.371 409.961,182.204 412.5,183C 414.037,184.11 414.703,185.61 414.5,187.5C 412.922,186.934 411.588,185.934 410.5,184.5C 408.955,183.548 407.288,183.215 405.5,183.5 Z"/></g>
<g><path style="opacity:0.996" fill="#e31e25" d="M 98.5,183.5 C 100.604,183.201 102.604,183.534 104.5,184.5C 105.887,186.21 107.221,187.877 108.5,189.5C 103.273,200.064 97.6062,210.397 91.5,220.5C 87.6159,220.953 86.2826,222.953 87.5,226.5C 82.112,235.442 77.112,244.608 72.5,254C 80.5617,252.684 88.895,252.184 97.5,252.5C 100.53,253.169 103.53,253.835 106.5,254.5C 107.78,255.931 109.447,256.598 111.5,256.5C 111.822,250.642 111.489,244.975 110.5,239.5C 110.255,224.044 110.255,208.377 110.5,192.5C 111.752,186.27 115.419,184.27 121.5,186.5C 121.672,205.443 122.672,224.443 124.5,243.5C 126.173,245.901 126.34,248.234 125,250.5C 123.09,256.569 124.923,258.235 130.5,255.5C 134.256,255.754 137.923,256.421 141.5,257.5C 141.414,258.496 141.748,259.329 142.5,260C 145.077,260.932 147.744,261.432 150.5,261.5C 153.484,261.787 154.817,263.454 154.5,266.5C 151.882,266.779 149.382,267.446 147,268.5C 141.771,267.799 136.438,267.465 131,267.5C 129.107,268.196 127.274,269.03 125.5,270C 124.785,274.525 123.785,279.025 122.5,283.5C 123.496,286.797 123.663,290.131 123,293.5C 121.381,298.42 118.548,302.42 114.5,305.5C 111.959,303.761 110.626,301.261 110.5,298C 109.325,288.46 109.325,278.96 110.5,269.5C 89.7174,268.94 68.8841,268.274 48,267.5C 47.3333,266.167 47.3333,264.833 48,263.5C 49.3678,260.814 50.7011,258.147 52,255.5C 56.9161,249.994 61.0828,243.994 64.5,237.5C 65.1174,237.611 65.6174,237.944 66,238.5C 67.2567,236.321 68.7567,234.321 70.5,232.5C 73.4513,226.932 76.118,221.266 78.5,215.5C 79.1667,213.5 79.8333,211.5 80.5,209.5C 82.4367,208.41 84.27,207.076 86,205.5C 90.7947,198.535 94.9614,191.202 98.5,183.5 Z"/></g>
<g><path style="opacity:0.58" fill="#ad2129" d="M 405.5,183.5 C 404.753,186.362 403.086,188.362 400.5,189.5C 400.772,186.268 402.438,184.268 405.5,183.5 Z"/></g>
<g><path style="opacity:0.514" fill="#b22529" d="M 429.5,187.5 C 427.077,185.863 424.41,185.363 421.5,186C 420.232,188.627 418.899,191.127 417.5,193.5C 415.218,187.087 417.551,183.42 424.5,182.5C 427.212,183.212 428.879,184.879 429.5,187.5 Z"/></g>
<g><path style="opacity:0.235" fill="#c92d32" d="M 261.5,184.5 C 263.199,184.34 264.866,184.506 266.5,185C 273.254,188.914 280.254,192.248 287.5,195C 288.883,196.271 289.883,197.771 290.5,199.5C 286.098,197.237 281.432,195.404 276.5,194C 270.224,188.736 262.89,185.903 254.5,185.5C 256.864,185.564 259.197,185.231 261.5,184.5 Z"/></g>
<g><path style="opacity:0.565" fill="#ae2426" d="M 400.5,189.5 C 400.66,191.199 400.494,192.866 400,194.5C 397.558,197.117 395.058,199.45 392.5,201.5C 394.191,196.766 396.858,192.766 400.5,189.5 Z"/></g>
<g><path style="opacity:0.624" fill="#b32327" d="M 98.5,183.5 C 94.9614,191.202 90.7947,198.535 86,205.5C 84.27,207.076 82.4367,208.41 80.5,209.5C 85.3912,199.963 91.3912,191.297 98.5,183.5 Z"/></g>
<g><path style="opacity:0.38" fill="#b32428" d="M 221.5,191.5 C 220.32,193.014 219.32,194.681 218.5,196.5C 213.806,197.039 211.639,199.706 212,204.5C 209.03,208.183 205.864,211.516 202.5,214.5C 203.692,211.438 205.192,208.438 207,205.5C 208,204.833 209,204.167 210,203.5C 210.311,201.444 210.811,199.444 211.5,197.5C 214.889,195.477 218.222,193.477 221.5,191.5 Z"/></g>
<g><path style="opacity:0.382" fill="#961e1f" d="M 91.5,220.5 C 90.3434,222.678 89.0101,224.678 87.5,226.5C 86.2826,222.953 87.6159,220.953 91.5,220.5 Z"/></g>
<g><path style="opacity:0.208" fill="#ab2323" d="M 399.5,216.5 C 397.35,221.468 394.683,226.135 391.5,230.5C 391.784,227.368 392.617,224.368 394,221.5C 395.011,220.663 396.178,220.33 397.5,220.5C 397.67,219.178 397.337,218.011 396.5,217C 397.448,216.517 398.448,216.351 399.5,216.5 Z"/></g>
<g><path style="opacity:0.345" fill="#c92127" d="M 78.5,215.5 C 76.118,221.266 73.4513,226.932 70.5,232.5C 68.7567,234.321 67.2567,236.321 66,238.5C 65.6174,237.944 65.1174,237.611 64.5,237.5C 67.9854,229.362 72.6521,222.028 78.5,215.5 Z"/></g>
<g><path style="opacity:0.463" fill="#d72c32" d="M 121.5,186.5 C 122.167,186.5 122.833,186.5 123.5,186.5C 124.989,202.003 125.989,217.67 126.5,233.5C 126.099,237.024 125.433,240.358 124.5,243.5C 122.672,224.443 121.672,205.443 121.5,186.5 Z"/></g>
<g><path style="opacity:0.02" fill="#972628" d="M 110.5,239.5 C 111.489,244.975 111.822,250.642 111.5,256.5C 109.447,256.598 107.78,255.931 106.5,254.5C 107.833,254.5 109.167,254.5 110.5,254.5C 110.5,249.5 110.5,244.5 110.5,239.5 Z"/></g>
<g><path style="opacity:0.071" fill="#4d0613" d="M 417.5,246.5 C 417.5,249.5 417.5,252.5 417.5,255.5C 415.901,255.768 414.568,255.434 413.5,254.5C 414.5,254.5 415.5,254.5 416.5,254.5C 416.194,251.615 416.527,248.948 417.5,246.5 Z"/></g>
<g><path style="opacity:0.031" fill="#7c1e1f" d="M 431.5,254.5 C 434.979,254.906 438.646,255.573 442.5,256.5C 438.76,256.241 435.094,256.574 431.5,257.5C 430.224,256.386 430.224,255.386 431.5,254.5 Z"/></g>
<g><path style="opacity:0.367" fill="#a82125" d="M 141.5,257.5 C 143.754,258.315 146.087,258.981 148.5,259.5C 149.713,259.747 150.38,260.414 150.5,261.5C 147.744,261.432 145.077,260.932 142.5,260C 141.748,259.329 141.414,258.496 141.5,257.5 Z"/></g>
<g><path style="opacity:0.059" fill="#491014" d="M 415.5,268.5 C 415.56,267.957 415.893,267.624 416.5,267.5C 417.808,271.315 417.808,274.981 416.5,278.5C 416.813,274.958 416.479,271.625 415.5,268.5 Z"/></g>
<g><path style="opacity:0.224" fill="#c12327" d="M 212.5,277.5 C 221.982,282.074 231.315,286.907 240.5,292C 247.492,292.5 254.492,292.666 261.5,292.5C 242.61,295.92 226.276,290.92 212.5,277.5 Z"/></g>
<g><path style="opacity:0.784" fill="#38191b" d="M 364.5,312.5 C 395.534,312.313 426.201,312.646 456.5,313.5C 455.5,313.5 454.5,313.5 453.5,313.5C 453.5,314.833 453.5,316.167 453.5,317.5C 425.333,317.75 397,317.75 368.5,317.5C 366.937,316.055 365.604,314.389 364.5,312.5 Z"/></g>
<g><path style="opacity:0.337" fill="#291e1f" d="M 180.5,230.5 C 180.483,235.268 179.816,239.934 178.5,244.5C 179.154,253.697 179.821,262.864 180.5,272C 179.755,285.357 179.588,298.523 180,311.5C 197.542,311.896 215.375,311.896 233.5,311.5C 233.414,312.496 233.748,313.329 234.5,314C 246.831,314.702 259.165,315.368 271.5,316C 265.5,316.333 259.5,316.667 253.5,317C 252.263,317.232 251.263,317.732 250.5,318.5C 227.167,318.5 203.833,318.5 180.5,318.5C 178.594,359.916 177.927,401.249 178.5,442.5C 178.179,440.952 177.179,440.285 175.5,440.5C 175.768,442.099 175.434,443.432 174.5,444.5C 174.221,438.711 173.888,433.044 173.5,427.5C 173.887,425.726 174.553,424.059 175.5,422.5C 174.306,400.699 174.306,378.866 175.5,357C 174.886,354.146 174.219,351.313 173.5,348.5C 174.04,347.252 174.707,346.085 175.5,345C 174.714,341.564 174.047,338.064 173.5,334.5C 173.817,329.242 173.817,323.908 173.5,318.5C 126.832,318.667 80.1655,318.5 33.5,318C 32.1667,316.333 32.1667,314.667 33.5,313C 80.2936,312.651 126.96,312.151 173.5,311.5C 173.1,282.697 173.1,254.03 173.5,225.5C 174.317,223.031 174.817,220.365 175,217.5C 175.667,218.833 176.333,220.167 177,221.5C 177.333,225.833 177.667,230.167 178,234.5C 178.934,233.142 179.768,231.808 180.5,230.5 Z"/></g>
<g><path style="opacity:0.143" fill="#672526" d="M 456.5,313.5 C 460.167,313.5 463.833,313.5 467.5,313.5C 467.5,314.833 467.5,316.167 467.5,317.5C 462.853,318.618 458.186,318.618 453.5,317.5C 453.5,316.167 453.5,314.833 453.5,313.5C 454.5,313.5 455.5,313.5 456.5,313.5 Z"/></g>
<g><path style="opacity:0.165" fill="#301c1e" d="M 233.5,311.5 C 263.684,312.416 294.017,312.749 324.5,312.5C 325.043,312.56 325.376,312.893 325.5,313.5C 319.528,314.33 313.528,314.83 307.5,315C 312.272,315.969 316.939,317.136 321.5,318.5C 297.833,318.5 274.167,318.5 250.5,318.5C 251.263,317.732 252.263,317.232 253.5,317C 259.5,316.667 265.5,316.333 271.5,316C 259.165,315.368 246.831,314.702 234.5,314C 233.748,313.329 233.414,312.496 233.5,311.5 Z"/></g>
<g><path style="opacity:0.996" fill="#221d1e" d="M 251.5,330.5 C 258.029,330.271 260.196,333.271 258,339.5C 246.757,360.26 235.257,380.927 223.5,401.5C 227.7,402.921 231.7,402.588 235.5,400.5C 243.808,401.432 252.142,402.098 260.5,402.5C 261.054,380.747 261.054,358.914 260.5,337C 260.585,335.893 260.919,334.893 261.5,334C 263.838,333.163 266.172,332.33 268.5,331.5C 270.774,332.221 272.607,333.554 274,335.5C 275.793,358.472 276.293,381.139 275.5,403.5C 286.555,403.424 296.555,406.424 305.5,412.5C 304.619,413.971 303.286,414.804 301.5,415C 298.443,415.256 295.443,415.756 292.5,416.5C 286.863,414.984 281.363,415.318 276,417.5C 275.152,422.264 273.985,426.931 272.5,431.5C 272.76,433.187 273.427,434.687 274.5,436C 273.181,443.077 270.015,449.244 265,454.5C 262.586,452.174 261.086,449.341 260.5,446C 259.315,436.259 259.315,426.426 260.5,416.5C 241.309,416.119 222.143,416.119 203,416.5C 200.855,416.604 199.021,415.937 197.5,414.5C 202.069,404.359 207.902,395.025 215,386.5C 224.493,368.173 234.993,350.506 246.5,333.5C 248.145,332.304 249.811,331.304 251.5,330.5 Z"/></g>
<g><path style="opacity:0.958" fill="#241c1d" d="M 331.5,226.5 C 331.581,254.902 331.581,283.235 331.5,311.5C 342.638,311.483 353.638,311.816 364.5,312.5C 365.604,314.389 366.937,316.055 368.5,317.5C 356.429,318.491 344.095,318.824 331.5,318.5C 330.655,347.605 330.988,376.771 332.5,406C 331.674,423.093 331.174,440.26 331,457.5C 330,461.167 328.333,461.5 326,458.5C 326.079,436.626 325.579,414.626 324.5,392.5C 324.935,367.953 324.935,343.287 324.5,318.5C 323.5,318.5 322.5,318.5 321.5,318.5C 316.939,317.136 312.272,315.969 307.5,315C 313.528,314.83 319.528,314.33 325.5,313.5C 325.376,312.893 325.043,312.56 324.5,312.5C 324.814,290.685 324.814,268.852 324.5,247C 324.706,242.553 325.373,238.22 326.5,234C 325.515,224.583 325.182,215.083 325.5,205.5C 326.163,203.958 326.83,202.291 327.5,200.5C 327.833,200.833 328.167,201.167 328.5,201.5C 327.659,208.138 327.826,214.805 329,221.5C 329.333,220.5 329.667,219.5 330,218.5C 330.498,220.527 330.331,222.527 329.5,224.5C 329.747,225.713 330.414,226.38 331.5,226.5 Z"/></g>
<g><path style="opacity:0.995" fill="#231e1f" d="M 95.5,337.5 C 103.343,337.033 111.01,337.866 118.5,340C 125.307,343.946 132.307,347.446 139.5,350.5C 150.436,361.978 154.769,375.644 152.5,391.5C 153.822,391.33 154.989,391.663 156,392.5C 158.58,398.044 158.58,403.71 156,409.5C 147.782,433.39 131.115,446.39 106,448.5C 84.8331,448.837 67.8331,440.171 55,422.5C 50.6388,414.392 48.1388,405.725 47.5,396.5C 47.6661,391.168 47.8327,385.835 48,380.5C 51.126,375.912 53.4593,370.912 55,365.5C 59.4636,361.398 62.6303,356.564 64.5,351C 70.4548,347.351 76.4548,343.685 82.5,340C 86.9884,339.24 91.3217,338.406 95.5,337.5 Z M 99.5,351.5 C 114.527,351.672 127.36,357.006 138,367.5C 142.987,375.416 146.154,384.082 147.5,393.5C 143.965,412.871 132.965,426.038 114.5,433C 92.4239,436.992 76.2573,429.159 66,409.5C 58.9626,387.993 64.4626,370.493 82.5,357C 88.1266,354.623 93.7933,352.79 99.5,351.5 Z"/></g>
<g><path style="opacity:0.996" fill="#221e1f" d="M 403.5,337.5 C 411.343,337.033 419.01,337.866 426.5,340C 433.317,343.782 440.317,347.115 447.5,350C 458.307,360.75 462.973,373.75 461.5,389C 463.349,391.206 464.849,393.706 466,396.5C 464.609,421.909 451.776,438.742 427.5,447C 401.439,452.424 380.272,444.59 364,423.5C 362.491,418.597 360.491,413.93 358,409.5C 356.977,400.638 356.144,391.804 355.5,383C 358.832,377.501 361.499,371.667 363.5,365.5C 365.323,362.178 367.823,359.511 371,357.5C 370.947,354.387 372.114,351.887 374.5,350C 380.223,346.859 385.89,343.526 391.5,340C 395.637,339.161 399.637,338.327 403.5,337.5 Z M 407.5,351.5 C 425.089,351.592 439.255,358.592 450,372.5C 452.48,379.4 454.647,386.4 456.5,393.5C 454.036,398.889 452.203,404.555 451,410.5C 433.641,435.834 411.808,440.667 385.5,425C 366.599,405.227 365.766,384.727 383,363.5C 389.859,356.72 398.026,352.72 407.5,351.5 Z"/></g>
<g><path style="opacity:0.455" fill="#524748" d="M 178.5,442.5 C 178.666,447.511 178.499,452.511 178,457.5C 177.333,458.167 176.667,458.833 176,459.5C 173.72,454.701 173.22,449.701 174.5,444.5C 175.434,443.432 175.768,442.099 175.5,440.5C 177.179,440.285 178.179,440.952 178.5,442.5 Z"/></g>
</svg>
